<svg width="100" height="100" viewBox="0 0 100 100" fill="none" xmlns="http://www.w3.org/2000/svg">
<g clip-path="url(#clip0_23_148)">
<path d="M99.6955 38.8251C99.3848 38.0339 98.8466 37.3527 98.1489 36.8677C97.4513 36.3827 96.6255 36.1156 95.7762 36.1004C94.9268 36.0851 94.092 36.3223 93.3774 36.7819C92.6628 37.2416 92.1005 37.903 91.7616 38.6826C91.3609 39.6028 90.7006 40.386 89.8616 40.9362C89.0226 41.4865 88.0415 41.7798 87.0384 41.7802H76.3038L75.4704 35.04C75.4713 35.0315 75.4713 35.023 75.4704 35.0146L73.5928 19.8251C73.5937 19.8167 73.5937 19.8082 73.5928 19.7997L72.3398 9.76653C72.2151 8.74485 71.9484 7.74561 71.5473 6.79778C71.481 6.64349 71.4127 6.48919 71.3405 6.3388C70.0903 3.70334 67.8535 1.66645 65.114 0.668927C62.3745 -0.328597 59.3526 -0.206527 56.7023 1.00872C56.394 1.14739 56.1168 1.26653 55.8397 1.372C53.9762 2.0951 51.9948 2.46596 49.9961 2.46575C48.1042 2.46833 46.2267 2.13777 44.4493 1.48919C44.0589 1.35052 43.6686 1.19036 43.2919 1.01653C41.7045 0.29222 39.969 -0.0479247 38.2258 0.023628C36.4826 0.0951806 34.7808 0.57642 33.258 1.4284C31.7352 2.28038 30.4343 3.47916 29.4604 4.92773C28.4866 6.37629 27.8673 8.03395 27.6525 9.76653L26.4112 19.7997C26.4102 19.8082 26.4102 19.8167 26.4112 19.8251L24.5336 35.0146C24.5327 35.023 24.5327 35.0315 24.5336 35.04L23.7002 41.7802H12.7412C11.7842 41.7834 10.8456 41.5183 10.0315 41.015C9.2174 40.5117 8.56044 39.7903 8.13502 38.9325C7.62593 37.9131 6.73301 37.1378 5.65269 36.7772C4.57237 36.4166 3.39314 36.5002 2.37444 37.0097C1.35573 37.5192 0.580983 38.4127 0.220633 39.4938C-0.139718 40.5749 -0.0561541 41.7549 0.452941 42.7743C1.58808 45.0641 3.34189 46.9895 5.51533 48.3321C7.68877 49.6747 10.1948 50.3807 12.749 50.37H23.4933V54.954C23.5011 57.5648 24.1051 60.1394 25.2593 62.4808C26.4135 64.8223 28.0872 66.8687 30.1527 68.4638L44.3263 79.3388C46.0289 80.646 47.3019 82.4328 47.9819 84.4697C47.0906 84.8976 46.3469 85.5817 45.8459 86.4347C45.3449 87.2876 45.1093 88.2705 45.1692 89.2581C45.2292 90.2456 45.5818 91.1928 46.1823 91.9788C46.7827 92.7648 47.6036 93.3539 48.5401 93.6708V98.5361C48.5401 98.9246 48.6943 99.2972 48.9689 99.5719C49.2434 99.8466 49.6157 100.001 50.0039 100.001C50.3922 100.001 50.7645 99.8466 51.039 99.5719C51.3135 99.2972 51.4678 98.9246 51.4678 98.5361V93.7509C52.463 93.4729 53.347 92.8917 53.9971 92.088C54.6472 91.2842 55.0311 90.2979 55.0955 89.2659C55.1599 88.2339 54.9015 87.2074 54.3564 86.329C53.8112 85.4506 53.0062 84.7639 52.0533 84.3642C52.7429 82.3697 54.0025 80.6216 55.6757 79.3368L69.8493 68.4618C71.9148 66.8668 73.5886 64.8203 74.7427 62.4789C75.8969 60.1374 76.501 57.5629 76.5087 54.9521V50.3759H87.0481C89.7237 50.3761 92.341 49.5943 94.5788 48.1266C96.8165 46.659 98.5772 44.5693 99.6447 42.1142C99.8702 41.5966 99.9908 41.0393 99.9995 40.4747C100.008 39.9102 99.9049 39.3495 99.6955 38.8251ZM58.2071 3.55169L58.3906 3.47747L58.6112 3.39739C58.6736 3.37591 58.7341 3.35247 58.7966 3.33294L59.021 3.26458L59.2064 3.20989L59.4367 3.15325L59.6202 3.11028C59.7002 3.09271 59.7802 3.07903 59.8583 3.06536L60.0379 3.03216L60.2897 2.997L60.4575 2.97552C60.5512 2.96575 60.6527 2.95989 60.7386 2.95208H60.881C61.0235 2.95208 61.164 2.94036 61.3065 2.94036C63.3036 2.94158 65.2316 3.67233 66.7284 4.9954C68.2252 6.31847 69.1878 8.14283 69.4356 10.1259L70.4719 18.5243H68.893C66.7826 18.5324 64.7327 17.8191 63.0826 16.5024C61.4326 15.1858 60.2813 13.3448 59.8193 11.2841L58.0627 3.6181L58.2071 3.55169ZM30.5567 10.1259C30.7154 8.85045 31.1718 7.63025 31.8889 6.56392C32.606 5.49759 33.5638 4.61505 34.6847 3.98762C35.8057 3.36019 37.0585 3.00548 38.3418 2.95214C39.6251 2.8988 40.9029 3.14835 42.072 3.6806L42.2399 3.75481L40.5223 11.2783C40.0598 13.3372 38.909 15.1766 37.2602 16.4924C35.6114 17.8081 33.5634 18.5215 31.4545 18.5146H29.5203L30.5567 10.1259ZM29.1593 21.454H31.4545C34.2286 21.4644 36.9231 20.5266 39.092 18.7959C41.2609 17.0651 42.7743 14.6452 43.3817 11.9365L45.0231 4.74505C46.6449 5.18014 48.3171 5.39883 49.9961 5.39544C51.7918 5.39631 53.5785 5.14249 55.3029 4.64153L56.9658 11.9267C57.5732 14.6354 59.0866 17.0554 61.2555 18.7861C63.4244 20.5169 66.1189 21.4547 68.893 21.4443H70.833L72.3554 33.749H27.6369L29.1593 21.454ZM27.2758 36.6884H72.7164L73.3469 41.7763H26.6454L27.2758 36.6884ZM52.1743 88.9638C52.1743 89.3691 52.0542 89.7653 51.8291 90.1023C51.604 90.4392 51.2842 90.7018 50.9099 90.8569C50.5357 91.0119 50.124 91.0523 49.7268 90.9731C49.3295 90.8939 48.9647 90.6986 48.6785 90.4118C48.3922 90.1251 48.1974 89.7599 48.1186 89.3623C48.0398 88.9647 48.0807 88.5527 48.2359 88.1784C48.3912 87.8041 48.6539 87.4842 48.9909 87.2593C49.3278 87.0344 49.7238 86.9146 50.1289 86.915C50.6715 86.9155 51.1918 87.1316 51.5753 87.5157C51.9588 87.8999 52.1743 88.4207 52.1743 88.9638ZM73.5791 54.9599C73.5726 57.1215 73.0724 59.2531 72.1168 61.1917C71.1612 63.1303 69.7755 64.8247 68.0654 66.1454L53.8996 77.0204C52.2602 78.2762 50.9258 79.8867 49.9961 81.7314C49.0665 79.8867 47.732 78.2762 46.0926 77.0204L31.919 66.1454C30.209 64.8247 28.8232 63.1303 27.8676 61.1917C26.912 59.2531 26.4119 57.1215 26.4053 54.9599V50.3759H73.5791V54.9599ZM96.9513 40.9443C96.1114 42.8765 94.7259 44.5211 92.9648 45.6762C91.2038 46.8313 89.144 47.4465 87.0384 47.4462H12.7412C10.7323 47.4531 8.76171 46.8966 7.05276 45.8399C5.3438 44.7833 3.96484 43.2686 3.07219 41.4677C2.95094 41.2259 2.90412 40.9535 2.93766 40.685C2.97119 40.4165 3.08358 40.1641 3.26058 39.9595C3.43758 39.755 3.67124 39.6077 3.93198 39.5361C4.19272 39.4645 4.46882 39.472 4.72532 39.5575C4.89528 39.6127 5.05263 39.701 5.18831 39.8173C5.32398 39.9336 5.43528 40.0757 5.51578 40.2353C6.18252 41.5804 7.21239 42.7118 8.48871 43.5013C9.76504 44.2907 11.2368 44.7067 12.7372 44.7021H87.0384C88.6116 44.7023 90.1506 44.2428 91.4664 43.3798C92.7822 42.5169 93.8176 41.2882 94.4453 39.8447C94.5169 39.68 94.6202 39.5311 94.7494 39.4064C94.8786 39.2817 95.031 39.1836 95.198 39.1179C95.365 39.0522 95.5433 39.02 95.7228 39.0232C95.9022 39.0264 96.0792 39.065 96.2438 39.1367C96.4083 39.2083 96.5572 39.3118 96.6818 39.441C96.8064 39.5703 96.9043 39.7228 96.97 39.8899C97.0357 40.057 97.0679 40.2355 97.0647 40.4151C97.0615 40.5946 97.0229 40.7718 96.9513 40.9365V40.9443Z" fill="#A66A21"/>
</g>
<defs>
<clipPath id="clip0_23_148">
<rect width="100" height="100" fill="white"/>
</clipPath>
</defs>
</svg>
