<svg width="100" height="100" viewBox="0 0 100 100" fill="none" xmlns="http://www.w3.org/2000/svg">
<g clip-path="url(#clip0_23_150)">
<path d="M26.0447 0.00137776V0.0173642C25.978 0.0140318 25.9112 0.0140318 25.8445 0.0173642C25.8445 0.0173642 24.4717 0.137256 23.0668 0.920556C22.1553 1.43802 21.396 2.18554 20.8649 3.08823C20.3339 3.99092 20.0497 5.01709 20.0408 6.06396C20.0408 8.62167 21.6619 10.4201 23.0668 11.2074C23.5591 11.4871 23.6151 11.3912 24.0434 11.5271V27.9924H22.1462C19.243 27.9918 16.3682 28.5624 13.6859 29.6714C11.0036 30.7805 8.56644 32.4063 6.51359 34.456C4.46074 36.5057 2.83244 38.9391 1.72169 41.6173C0.610934 44.2955 0.0394998 47.1659 0.0400256 50.0646V67.9566H0V83.9424H0.0400256V89.937C0.0400256 90.467 0.250875 90.9752 0.626188 91.3499C1.0015 91.7247 1.51053 91.9352 2.04131 91.9352H19.9207V97.9578C19.9207 98.4878 20.1316 98.996 20.5069 99.3708C20.8822 99.7455 21.3913 99.956 21.922 99.956H29.9792C30.51 99.956 31.019 99.7455 31.3943 99.3708C31.7696 98.996 31.9805 98.4878 31.9805 97.9578V91.9392H59.9183V98.0018C59.9183 98.5317 60.1292 99.04 60.5045 99.4147C60.8798 99.7895 61.3889 100 61.9196 100H69.9648C70.4955 100 71.0046 99.7895 71.3799 99.4147C71.7552 99.04 71.9661 98.5317 71.9661 98.0018V91.9392H89.8855C90.4163 91.9392 90.9253 91.7287 91.3006 91.3539C91.676 90.9792 91.8868 90.4709 91.8868 89.941V83.9463H91.9028V67.9606H91.8868V59.9678H97.9987C98.5295 59.9678 99.0385 59.7573 99.4138 59.3825C99.7891 59.0078 100 58.4995 100 57.9696V49.9847C100 49.4547 99.7891 48.9465 99.4138 48.5718C99.0385 48.197 98.5295 47.9865 97.9987 47.9865H91.7907C90.7981 36.8444 82.0845 27.9924 70.5732 27.9924H68.0716V11.647C68.4758 11.5471 68.5078 11.639 68.9641 11.4272C70.4611 10.6838 72.0741 8.77354 72.0741 6.05597C72.0741 3.33839 70.4611 1.42011 68.9641 0.680771C67.4632 -0.0625648 66.0223 0.00137776 66.0223 0.00137776H26.0447ZM26.2248 4.0058V4.01379H66.0703C66.0863 4.01398 66.1023 4.01398 66.1183 4.01379C66.1183 4.01379 66.6787 4.0058 67.179 4.26956C67.6833 4.51734 68.0716 4.62924 68.0716 6.06796C68.0716 7.49468 67.6833 7.61058 67.179 7.85836C66.6747 8.10613 66.1183 8.12612 66.1183 8.12612C65.8515 8.11972 65.5861 8.16668 65.3377 8.26423C65.0893 8.36179 64.863 8.50796 64.672 8.69415C64.4811 8.88034 64.3294 9.10279 64.2258 9.3484C64.1222 9.59402 64.0689 9.85784 64.069 10.1243V27.9844H28.0459V10.1203C28.0455 9.62531 27.861 9.14809 27.5282 8.78113C27.1954 8.41418 26.7381 8.18361 26.2448 8.13411C26.2448 8.13411 25.6164 8.05418 25.02 7.71848C24.4236 7.38678 24.0434 7.15898 24.0434 6.06396C24.0434 4.96894 24.4236 4.74514 25.02 4.40944C25.6044 4.08173 26.2048 4.0098 26.2248 4.0058ZM22.1462 31.9888H70.5772C80.6436 31.9888 87.8682 39.9217 87.8922 50.0726V67.9566H4.04659V50.0646C4.03546 47.6878 4.49612 45.3323 5.40197 43.1342C6.30782 40.9361 7.6409 38.939 9.32419 37.2583C11.0075 35.5776 13.0076 34.2466 15.2091 33.3421C17.4105 32.4376 19.7697 31.9777 22.1502 31.9888H22.1462ZM92.123 51.9829H95.9974V55.9714H92.123V51.9829ZM4.04659 71.9571H87.8882V79.9499H4.04659V71.9571ZM4.04659 83.9463H87.8882V87.9428H4.04659V83.9463ZM23.9273 92.0151H27.9819V95.9636H23.9273V92.0151ZM63.9289 92.0151H67.9715V96.0036H63.9289V92.0151Z" fill="#A66A21"/>
</g>
<defs>
<clipPath id="clip0_23_150">
<rect width="100" height="100" fill="white"/>
</clipPath>
</defs>
</svg>
