<svg width="110" height="100" viewBox="0 0 110 100" fill="none" xmlns="http://www.w3.org/2000/svg">
<g clip-path="url(#clip0_23_158)">
<path d="M1.76143 91.1006H11.4933C11.6433 91.3766 11.86 91.6067 12.1218 91.768C12.3835 91.9293 12.6813 92.0161 12.9852 92.0198H19.3563C20.6882 92.0171 21.9882 91.5944 23.0859 90.807C24.1835 90.0197 25.0275 88.9045 25.5072 87.6077H35.3448L64.1917 98.9082C66.4842 99.8117 68.943 100.161 71.3836 99.9313C73.8241 99.7011 76.183 98.8969 78.2831 97.5791L108.599 77.5407C108.966 77.2976 109.279 76.9744 109.516 76.5933C109.752 76.2122 109.907 75.7822 109.969 75.3329C110.031 74.8835 110 74.4254 109.876 73.99C109.753 73.5547 109.541 73.1523 109.254 72.8105C107.497 70.6962 105.168 69.1861 102.573 68.4787C99.9782 67.7713 97.2391 67.8997 94.7155 68.847L93.4983 69.2974C91.8595 63.7187 88.6803 58.7686 84.3586 55.0669C80.037 51.3651 74.7651 49.0763 69.203 48.4869V37.1165C69.6222 37.1532 70.0608 37.179 70.5381 37.179C73.0935 37.1521 75.6111 36.533 77.9092 35.3665C80.2073 34.2 82.2283 32.5152 83.8263 30.434C93.2553 19.1132 86.5319 2.83798 86.2413 2.15042C86.0936 1.80888 85.8503 1.52197 85.5435 1.3274C85.2366 1.13283 84.8806 1.0397 84.5221 1.06026C78.3916 1.60648 72.5319 3.94127 67.6124 7.79794C62.9901 3.69272 57.3713 0.999745 51.3756 0.0160594C51.0187 -0.0334953 50.6558 0.0322723 50.3359 0.204506C50.0159 0.376739 49.7542 0.647167 49.5859 0.979372C49.2495 1.64303 41.4464 17.3851 50.0897 29.3695C51.6341 31.7373 53.7042 33.6801 56.1235 35.0322C58.5428 36.3844 61.2396 37.1057 63.9839 37.1349C64.5534 37.134 65.1226 37.1021 65.6889 37.0393V48.3324C61.4996 48.4242 57.3803 49.4724 53.6206 51.4034C49.8609 53.3344 46.552 56.1014 43.9265 59.5098C42.0656 59.2191 40.1768 59.1771 38.3058 59.3848L25.2871 60.8353C24.7496 59.671 23.909 58.688 22.8614 57.9988C21.8139 57.3096 20.6017 56.942 19.3634 56.9379H12.9852C12.6813 56.9416 12.3835 57.0285 12.1218 57.1897C11.86 57.351 11.6433 57.5811 11.4933 57.8571H1.76143C1.29427 57.8571 0.846242 58.0508 0.51591 58.3956C0.185578 58.7403 0 59.2079 0 59.6955V89.2622C0 89.7498 0.185578 90.2174 0.51591 90.5621C0.846242 90.9069 1.29427 91.1006 1.76143 91.1006ZM81.1683 28.0165C79.9453 29.6187 78.4121 30.9337 76.669 31.8754C74.9259 32.8172 73.0121 33.3647 71.0525 33.482C72.6998 31.1203 73.7614 28.3697 74.1425 25.4756C74.5236 22.5816 74.2124 19.6341 73.2366 16.8961C72.531 14.5917 71.4383 12.4367 70.0097 10.5316C73.9683 7.49349 78.5988 5.5495 83.4705 4.88042C84.7317 8.63624 87.7649 20.0967 81.1683 28.0165ZM52.8957 27.1524C46.8487 18.7712 50.6446 7.56078 52.1559 3.89872C55.8883 4.73703 66.8409 8.00751 69.8794 18.0083C70.7107 20.2816 70.9651 22.7404 70.6179 25.1465C70.2707 27.5526 69.3337 29.8242 67.8978 31.741L59.0483 13.8389L55.9183 15.5228L64.7624 33.4195C62.4356 33.524 60.1221 33.0025 58.044 31.9051C55.966 30.8076 54.1931 29.171 52.8957 27.1524ZM66.2173 51.9872C71.5916 51.9699 76.8272 53.7656 81.1441 57.1066C85.4609 60.4476 88.6278 65.155 90.1728 70.5272L72.7716 76.9726C72.1658 75.7274 71.2384 74.6837 70.0942 73.9595L52.3091 62.659C50.8783 61.7573 49.3552 61.0259 47.7682 60.4786C50.1159 57.8118 52.9669 55.6807 56.142 54.2193C59.317 52.758 62.7473 51.998 66.2173 51.9872ZM38.6739 63.0395C42.7904 62.5944 46.9337 63.5626 50.4755 65.7971L68.2553 77.0976C69.0413 77.6044 69.6172 78.3998 69.8696 79.3273C70.122 80.2549 70.0328 81.2474 69.6193 82.1097C69.2059 82.9721 68.4982 83.6417 67.6356 83.9869C66.7729 84.3321 65.8177 84.3278 64.9579 83.975L47.7787 76.8053L46.4717 80.2192L63.651 87.3889C64.7319 87.8401 65.9014 88.0118 67.0597 87.8895C68.218 87.7671 69.3308 87.3543 70.3033 86.6862C71.2757 86.0182 72.079 85.1146 72.6447 84.0526C73.2103 82.9906 73.5216 81.8016 73.5519 80.5869L95.8886 72.3142C97.6518 71.6524 99.5599 71.5329 101.386 71.97C103.213 72.407 104.88 73.3821 106.191 74.7794L76.4336 94.4501C74.7915 95.4741 72.949 96.0977 71.0437 96.2744C69.1383 96.4511 67.2193 96.1762 65.43 95.4704L36.2836 84.043C36.0859 83.9661 35.8765 83.9269 35.6654 83.9272H25.9599V64.4569L38.6739 63.0395ZM14.7467 60.6147H19.3563C20.1739 60.6171 20.9572 60.9577 21.5347 61.5617C22.1121 62.1658 22.4366 62.9841 22.4371 63.8374V85.1259C22.4352 85.9782 22.1101 86.7951 21.5328 87.3979C20.9555 88.0008 20.173 88.3406 19.3563 88.343H14.7467V60.6147ZM3.52286 61.5339H11.2238V87.4238H3.52286V61.5339Z" fill="#A66A21"/>
</g>
<defs>
<clipPath id="clip0_23_158">
<rect width="110" height="100" fill="white"/>
</clipPath>
</defs>
</svg>
