<svg width="155" height="100" viewBox="0 0 155 100" fill="none" xmlns="http://www.w3.org/2000/svg">
<g clip-path="url(#clip0_23_142)">
<path d="M83.7679 85.7494H102.65C104.102 85.7494 105.071 84.7666 105.071 83.2924V54.5454C105.071 53.0712 104.102 52.0884 102.65 52.0884H83.7679C82.3155 52.0884 81.3472 53.0712 81.3472 54.5454V83.2924C81.3472 84.7666 82.3155 85.7494 83.7679 85.7494ZM86.1887 57.0024H100.229V80.8354H86.1887V57.0024ZM114.754 85.7494H133.635C135.088 85.7494 136.056 84.7666 136.056 83.2924V54.5454C136.056 53.0712 135.088 52.0884 133.635 52.0884H114.754C113.301 52.0884 112.333 53.0712 112.333 54.5454V83.2924C112.333 84.7666 113.301 85.7494 114.754 85.7494ZM117.174 57.0024H131.215V80.8354H117.174V57.0024Z" fill="#A66A21"/>
<path d="M153.97 38.3292L116.932 0.737099C116.448 0.245698 115.964 0 115.238 0H39.7102C38.9839 0 38.2577 0.245698 38.0157 0.737099L0.736035 38.5749C0.00980835 39.312 -0.232267 40.2948 0.251884 41.2776C0.493959 42.2604 1.46226 42.7518 2.43056 42.7518H7.27207V97.543C7.27207 99.0172 8.24037 100 9.69282 100C39.226 100 116.206 100 147.676 100C149.128 100 150.097 99.0172 150.097 97.543V42.7518H152.517C154.938 42.7518 155.906 39.8034 153.97 38.3292ZM134.12 25.3071H65.3702L57.8658 17.6904H126.615L134.12 25.3071ZM77.9581 37.8378L74.8111 34.6437L70.2117 30.2211H138.961L146.465 37.8378H77.9581ZM121.774 12.7764H53.0243L45.52 5.1597H114.269L121.774 12.7764ZM31.2375 95.3317V78.3784C31.2375 73.7101 35.1107 69.7789 39.7102 69.7789C44.3096 69.7789 48.1828 73.7101 48.1828 78.3784V95.3317H31.2375ZM67.3068 40.2948V95.086H53.0243V78.1327C53.0243 70.7617 47.2145 64.6192 39.7102 64.6192C32.2058 64.6192 26.396 70.516 26.396 78.1327V95.086H12.1136V40.2948C12.1136 38.8206 11.1453 37.8378 9.69282 37.8378H8.24037L39.7102 5.89681C45.0358 11.3022 59.3183 25.7985 71.18 37.8378H69.7275C68.2751 37.8378 67.3068 39.0663 67.3068 40.2948ZM145.255 95.3317H72.1483V42.7518H76.9898H145.255V95.3317Z" fill="#A66A21"/>
<path d="M39.7102 23.8329C32.69 23.8329 27.1223 29.484 27.1223 36.6093C27.1223 43.7346 32.69 49.3857 39.7102 49.3857C46.7304 49.3857 52.2982 43.7346 52.2982 36.6093C52.2982 29.7297 46.4883 23.8329 39.7102 23.8329ZM39.7102 44.4717C35.3529 44.4717 31.9638 41.0319 31.9638 36.6093C31.9638 32.1867 35.3529 28.7469 39.7102 28.7469C44.0676 28.7469 47.4567 32.1867 47.4567 36.6093C47.4567 41.0319 43.8255 44.4717 39.7102 44.4717Z" fill="#A66A21"/>
</g>
<defs>
<clipPath id="clip0_23_142">
<rect width="155" height="100" fill="white"/>
</clipPath>
</defs>
</svg>
