<svg width="140" height="100" viewBox="0 0 140 100" fill="none" xmlns="http://www.w3.org/2000/svg">
<g clip-path="url(#clip0_23_152)">
<path d="M131.892 5.6239H93.8894C93.5681 5.6239 93.2662 5.49912 93.0385 5.27241L89.3875 1.63796C88.3265 0.581724 86.9159 0 85.4153 0H27.7893C25.1058 0 22.6148 1.32689 21.1247 3.55009L14.2183 13.8629C13.2385 15.3269 13.1484 17.1986 13.9817 18.7504C14.815 20.3023 16.4322 21.2654 18.1994 21.2654H47.8995V24.2531H32.6884C28.6561 24.2531 25.0281 26.638 23.4463 30.3304L14.5396 51.1107L6.7381 54.2179C2.57164 55.877 -0.120667 59.8348 -0.120667 64.3023V83.5466C-0.120667 86.4165 2.22561 88.7522 5.10859 88.7522H14.1865C15.2423 95.123 20.814 100 27.5086 100C34.2032 100 39.7749 95.123 40.8307 88.7522H90.4539C91.5096 95.123 97.0814 100 103.776 100C110.471 100 116.042 95.123 117.098 88.7522H135.231C137.794 88.7522 139.879 86.6766 139.879 84.1248V13.5747C139.879 9.1898 136.297 5.6239 131.892 5.6239ZM27.5086 95.6063C22.4947 95.6063 18.4165 91.5466 18.4165 86.5554C18.4165 81.5641 22.4947 77.5044 27.5086 77.5044C32.5225 77.5044 36.6006 81.5641 36.6006 86.5554C36.6006 91.5466 32.5225 95.6063 27.5086 95.6063ZM47.8995 84.3585H40.8342C40.8165 84.2478 40.7936 84.1406 40.7724 84.0316C40.7583 83.9578 40.7459 83.884 40.73 83.8102C40.6947 83.638 40.6541 83.4675 40.6117 83.297C40.6029 83.2619 40.5959 83.2267 40.5853 83.1916C40.5323 82.9859 40.474 82.7838 40.4122 82.5835C40.3946 82.5255 40.3734 82.4675 40.354 82.4077C40.3081 82.2671 40.2604 82.1265 40.211 81.9877C40.1827 81.9139 40.1545 81.8401 40.1245 81.7663C40.0786 81.645 40.0327 81.5237 39.9815 81.4042C39.9497 81.3251 39.9144 81.2478 39.8791 81.1705C39.8297 81.0562 39.7802 80.9455 39.7273 80.833C39.6884 80.754 39.6513 80.6766 39.6107 80.5975C39.5578 80.4903 39.5013 80.3814 39.4448 80.2759C39.4042 80.1986 39.3618 80.1213 39.3194 80.0439C39.2612 79.9385 39.1994 79.833 39.1376 79.7293C39.0935 79.6555 39.0493 79.5817 39.0052 79.5079C38.9381 79.4025 38.871 79.2988 38.8022 79.1933C38.7563 79.1248 38.7121 79.0562 38.6662 78.9895C38.5903 78.8787 38.5109 78.7698 38.4296 78.6608C38.389 78.6028 38.3484 78.5448 38.3061 78.4886C38.1966 78.3445 38.0854 78.2056 37.9724 78.0668C37.9565 78.0457 37.9406 78.0246 37.923 78.0035C37.7923 77.8453 37.6564 77.6907 37.5187 77.5395C37.4763 77.4921 37.4322 77.4481 37.388 77.4025C37.2909 77.2988 37.1938 77.1951 37.0932 77.0931C37.0367 77.0369 36.9785 76.9824 36.922 76.9279C36.8319 76.8401 36.7401 76.7522 36.6465 76.6661C36.5848 76.6098 36.5212 76.5536 36.4576 76.4974C36.3658 76.4165 36.274 76.3374 36.1805 76.2583L35.9792 76.0949C35.8856 76.0193 35.7903 75.9455 35.695 75.8717C35.6261 75.819 35.5555 75.7663 35.4849 75.7153C35.3878 75.6432 35.2889 75.5747 35.1883 75.5044C35.1177 75.4569 35.047 75.4077 34.9764 75.3603C34.8723 75.29 34.7646 75.2232 34.6587 75.1564C34.5898 75.1142 34.5209 75.0703 34.4503 75.0281C34.3338 74.9578 34.2138 74.891 34.0937 74.8243C34.0319 74.7891 33.9719 74.7539 33.9119 74.7206C33.7406 74.6292 33.5694 74.5413 33.3964 74.4569C33.3822 74.4517 33.3699 74.4446 33.3558 74.4376C33.1686 74.348 32.9779 74.2619 32.7873 74.181C32.7255 74.1547 32.6619 74.1318 32.6001 74.1054C32.4695 74.0527 32.3371 74 32.2029 73.949C32.127 73.9209 32.0493 73.8963 31.9734 73.8682C31.8516 73.826 31.7298 73.7838 31.6062 73.7452C31.5232 73.7188 31.4402 73.6942 31.3555 73.6696C31.2355 73.6344 31.1154 73.5993 30.9953 73.5677C30.9088 73.5448 30.8223 73.522 30.7341 73.5009C30.614 73.471 30.494 73.4446 30.3721 73.4183C30.2839 73.3989 30.1956 73.3796 30.1056 73.362C29.982 73.3392 29.8584 73.3163 29.7331 73.297C29.6448 73.2812 29.5583 73.2671 29.4682 73.2548C29.3394 73.2355 29.2087 73.2197 29.0763 73.2039C28.9933 73.1951 28.9086 73.1828 28.8239 73.1757C28.6791 73.1617 28.5325 73.1511 28.386 73.1424C28.3136 73.1371 28.243 73.13 28.1706 73.1283C27.95 73.116 27.731 73.1107 27.5086 73.1107C27.2861 73.1107 27.0672 73.116 26.8465 73.1283C26.7742 73.13 26.7035 73.1371 26.6312 73.1424C26.4846 73.1511 26.3381 73.1617 26.1933 73.1757C26.1086 73.1828 26.0238 73.1951 25.9409 73.2039C25.8085 73.2197 25.6778 73.2355 25.5489 73.2548C25.4589 73.2671 25.3724 73.2812 25.2841 73.297C25.1588 73.3163 25.0352 73.3392 24.9116 73.362C24.8216 73.3796 24.7333 73.3989 24.645 73.4183C24.5232 73.4446 24.4032 73.471 24.2831 73.5009C24.1948 73.522 24.1083 73.5448 24.0218 73.5677C23.9018 73.5993 23.7817 73.6344 23.6617 73.6696C23.5769 73.6942 23.494 73.7188 23.411 73.7452C23.2874 73.7838 23.1656 73.826 23.0438 73.8682C22.9679 73.8963 22.8902 73.9209 22.8143 73.949C22.6801 74 22.5477 74.0527 22.417 74.1054C22.3552 74.1318 22.2917 74.1547 22.2299 74.181C22.0392 74.2619 21.8486 74.348 21.6614 74.4376C21.6473 74.4446 21.6349 74.4517 21.6208 74.4569C21.4478 74.5413 21.2766 74.6292 21.1053 74.7206C21.0453 74.7539 20.9853 74.7891 20.9235 74.8243C20.8034 74.891 20.6834 74.9578 20.5668 75.0281C20.4962 75.0703 20.4274 75.1142 20.3585 75.1564C20.2526 75.2232 20.1449 75.29 20.0407 75.3603C19.9701 75.4077 19.8995 75.4569 19.8289 75.5044C19.7283 75.5747 19.6294 75.6432 19.5323 75.7153C19.4617 75.7663 19.3911 75.819 19.3222 75.8717C19.2269 75.9455 19.1315 76.0193 19.038 76.0949L18.8367 76.2583C18.7431 76.3374 18.6513 76.4165 18.5595 76.4974C18.496 76.5536 18.4324 76.6098 18.3706 76.6661C18.2771 76.7522 18.1853 76.8401 18.0952 76.9279C18.0387 76.9824 17.9805 77.0369 17.924 77.0931C17.8233 77.1951 17.7262 77.2988 17.6291 77.4025C17.585 77.4481 17.5409 77.4921 17.4985 77.5395C17.3608 77.6907 17.2249 77.8453 17.0942 78.0035C17.0766 78.0246 17.0607 78.0457 17.0448 78.0668C16.9318 78.2056 16.8206 78.3445 16.7111 78.4886C16.6687 78.5448 16.6281 78.6028 16.5875 78.6608C16.5063 78.7698 16.4269 78.8787 16.351 78.9895C16.3051 79.0562 16.2609 79.1248 16.215 79.1933C16.1462 79.2988 16.0791 79.4025 16.012 79.5079C15.9679 79.5817 15.9237 79.6555 15.8796 79.7293C15.8178 79.833 15.756 79.9385 15.6977 80.0439C15.6554 80.1213 15.613 80.1986 15.5724 80.2759C15.5159 80.3814 15.4594 80.4903 15.4064 80.5975C15.3658 80.6766 15.3288 80.754 15.2899 80.833C15.237 80.9455 15.1875 81.0562 15.1381 81.1705C15.1028 81.2478 15.0675 81.3251 15.0357 81.4042C14.9845 81.5237 14.9386 81.645 14.8927 81.7663C14.8627 81.8401 14.8344 81.9139 14.8062 81.9877C14.7568 82.1265 14.7091 82.2671 14.6632 82.4077C14.6438 82.4675 14.6226 82.5255 14.6049 82.5835C14.5431 82.7838 14.4849 82.9859 14.4319 83.1916C14.4213 83.2267 14.4143 83.2619 14.4054 83.297C14.3631 83.4675 14.3225 83.638 14.2872 83.8102C14.2713 83.884 14.2589 83.9578 14.2448 84.0316C14.2236 84.1406 14.2006 84.2478 14.183 84.3585H5.10859C4.6584 84.3585 4.29295 83.9947 4.29295 83.5466V74.3409H7.73558V69.9473H4.29295V64.3023C4.29295 61.6415 5.89598 59.2847 8.37643 58.297L16.6352 55.0088H47.8995V84.3585ZM47.8995 50.6151H19.55L27.5051 32.0545C28.3931 29.9842 30.4269 28.6467 32.6884 28.6467H47.8995V50.6151ZM103.776 95.6063C98.7621 95.6063 94.6839 91.5466 94.6839 86.5554C94.6839 81.5641 98.7621 77.5044 103.776 77.5044C103.933 77.5044 104.088 77.5079 104.244 77.5167C108.421 77.7276 111.863 80.761 112.683 84.7329C112.713 84.8805 112.741 85.0299 112.764 85.1793C112.81 85.478 112.84 85.7821 112.856 86.0896C112.864 86.2443 112.868 86.3989 112.868 86.5554C112.868 91.5466 108.79 95.6063 103.776 95.6063ZM135.466 69.9473H132.023V74.3409H135.466V84.1248C135.466 84.2531 135.36 84.3585 135.231 84.3585H117.102C117.084 84.2496 117.061 84.1423 117.04 84.0351C117.026 83.9596 117.013 83.884 116.997 83.8084C116.962 83.6397 116.923 83.4728 116.881 83.3076C116.87 83.2689 116.863 83.2285 116.853 83.1898C116.8 82.9859 116.741 82.7856 116.68 82.5852C116.66 82.5237 116.639 82.4622 116.62 82.4025C116.574 82.2636 116.528 82.1248 116.478 81.9895C116.45 81.9121 116.42 81.8383 116.392 81.7627C116.346 81.6432 116.298 81.5237 116.251 81.406C116.217 81.3251 116.182 81.246 116.146 81.167C116.097 81.0562 116.048 80.9455 115.995 80.8348C115.958 80.754 115.917 80.6749 115.878 80.5958C115.825 80.4886 115.77 80.3831 115.714 80.2759C115.672 80.1986 115.629 80.1213 115.587 80.0439C115.527 79.9385 115.467 79.8348 115.405 79.7311C115.361 79.6555 115.317 79.5817 115.271 79.5079C115.205 79.4025 115.138 79.2988 115.069 79.1968C115.025 79.1265 114.979 79.0562 114.934 78.9895C114.858 78.8787 114.778 78.7715 114.701 78.6643C114.658 78.6046 114.616 78.5448 114.572 78.4868C114.466 78.348 114.358 78.2109 114.247 78.0756C114.227 78.051 114.21 78.0264 114.19 78.0035C114.058 77.8453 113.924 77.6907 113.786 77.5395C113.742 77.4921 113.698 77.4464 113.654 77.3989C113.557 77.2953 113.459 77.1933 113.361 77.0931C113.304 77.0369 113.246 76.9824 113.188 76.9262C113.097 76.8383 113.007 76.7522 112.914 76.6661C112.852 76.6098 112.787 76.5536 112.723 76.4956C112.633 76.4165 112.541 76.3374 112.448 76.2601C112.381 76.2039 112.314 76.1476 112.245 76.0931C112.153 76.0193 112.058 75.9455 111.962 75.8717C111.893 75.819 111.823 75.7663 111.752 75.7153C111.655 75.6432 111.556 75.5747 111.457 75.5061C111.385 75.4569 111.314 75.4077 111.244 75.3603C111.14 75.29 111.034 75.2232 110.928 75.1582C110.857 75.1142 110.788 75.0703 110.718 75.0281C110.601 74.9578 110.483 74.891 110.363 74.8243C110.301 74.7891 110.241 74.7539 110.177 74.7206C110.01 74.6292 109.84 74.5431 109.667 74.4605C109.653 74.4534 109.639 74.4446 109.623 74.4376C109.436 74.348 109.245 74.2619 109.055 74.181C108.993 74.1547 108.929 74.1318 108.867 74.1054C108.735 74.0527 108.604 74 108.47 73.949C108.394 73.9209 108.317 73.8963 108.239 73.8682C108.119 73.826 107.997 73.7838 107.874 73.7452C107.791 73.7188 107.706 73.6942 107.623 73.6696C107.503 73.6344 107.383 73.5993 107.263 73.5677C107.176 73.5448 107.09 73.522 107.001 73.5009C106.881 73.471 106.761 73.4446 106.639 73.4183C106.551 73.3989 106.463 73.3796 106.373 73.362C106.249 73.3392 106.126 73.3163 106 73.297C105.912 73.2812 105.826 73.2671 105.736 73.2548C105.607 73.2355 105.476 73.2197 105.344 73.2039C105.261 73.1951 105.176 73.1828 105.091 73.1757C104.946 73.1617 104.8 73.1511 104.653 73.1424C104.581 73.1371 104.51 73.13 104.438 73.1283C104.217 73.116 103.998 73.1107 103.776 73.1107C103.553 73.1107 103.335 73.116 103.114 73.1283C103.042 73.13 102.971 73.1371 102.899 73.1424C102.752 73.1511 102.605 73.1617 102.461 73.1757C102.376 73.1828 102.291 73.1951 102.208 73.2039C102.076 73.2197 101.945 73.2355 101.816 73.2548C101.726 73.2671 101.64 73.2812 101.551 73.297C101.426 73.3163 101.303 73.3392 101.179 73.362C101.089 73.3796 101.001 73.3989 100.912 73.4183C100.791 73.4446 100.671 73.471 100.55 73.5009C100.462 73.522 100.376 73.5448 100.289 73.5677C100.169 73.5993 100.049 73.6344 99.929 73.6696C99.846 73.6942 99.7613 73.7188 99.6783 73.7452C99.5547 73.7838 99.4329 73.826 99.3129 73.8682C99.2352 73.8963 99.1575 73.9209 99.0816 73.949C98.9474 74 98.8168 74.0527 98.6844 74.1054C98.6226 74.1318 98.559 74.1547 98.4972 74.181C98.3066 74.2619 98.1159 74.348 97.9288 74.4376C97.9129 74.4446 97.8988 74.4517 97.8846 74.4605C97.7116 74.5431 97.5421 74.6292 97.3744 74.7206C97.3109 74.7539 97.2508 74.7891 97.189 74.8243C97.0708 74.891 96.9507 74.9578 96.8342 75.0281C96.7636 75.0703 96.6947 75.1142 96.6241 75.1582C96.5182 75.2232 96.4123 75.29 96.3081 75.3603C96.2375 75.4077 96.1668 75.4569 96.0945 75.5061C95.9956 75.5747 95.8967 75.6432 95.7996 75.7153C95.729 75.7663 95.6584 75.819 95.5896 75.8717C95.4942 75.9455 95.3989 76.0193 95.3071 76.0931C95.2382 76.1476 95.1711 76.2039 95.1041 76.2601C95.0105 76.3374 94.9187 76.4165 94.8286 76.4974C94.7651 76.5536 94.6998 76.6098 94.638 76.6661C94.5444 76.7522 94.4544 76.8401 94.3626 76.9279C94.3061 76.9824 94.2478 77.0369 94.1913 77.0931C94.0925 77.1933 93.9936 77.297 93.8965 77.4007C93.8541 77.4464 93.8082 77.4921 93.7658 77.5395C93.6281 77.6907 93.494 77.8453 93.3616 78.0035C93.3439 78.0264 93.3262 78.0492 93.3086 78.0703C93.1974 78.2074 93.0861 78.3462 92.9802 78.4886C92.9361 78.5448 92.8955 78.6028 92.8531 78.6608C92.7737 78.7698 92.6942 78.8787 92.6183 78.9895C92.5724 79.0562 92.5283 79.1265 92.4824 79.1951C92.4135 79.2988 92.3464 79.4025 92.2811 79.5079C92.2352 79.5817 92.1911 79.6555 92.1469 79.7293C92.0851 79.833 92.0233 79.9385 91.9651 80.0439C91.9227 80.1213 91.8803 80.1986 91.8397 80.2759C91.7815 80.3814 91.7268 80.4903 91.672 80.5975C91.6332 80.6766 91.5961 80.754 91.5573 80.833C91.5043 80.9455 91.4549 81.058 91.4054 81.1705C91.3701 81.2478 91.3348 81.3251 91.303 81.4042C91.2518 81.5237 91.2059 81.645 91.1583 81.7663C91.13 81.8401 91.1018 81.9139 91.0735 81.9877C91.0223 82.1283 90.9764 82.2689 90.9305 82.4112C90.9111 82.4692 90.8899 82.5255 90.8723 82.5835C90.8105 82.7838 90.7522 82.9877 90.6975 83.1916C90.6904 83.2232 90.6834 83.2566 90.6763 83.2882C90.6322 83.4622 90.5916 83.6362 90.5545 83.812C90.5386 83.8822 90.5262 83.9543 90.5139 84.0264C90.4927 84.1371 90.4698 84.246 90.4503 84.3585H52.3131V19.0685C52.3131 17.8559 51.3245 16.8717 50.1063 16.8717H18.1994C18.1447 16.8717 17.9769 16.8717 17.8728 16.6766C17.7686 16.4833 17.8604 16.3445 17.8922 16.3005L24.7969 5.9877C25.466 4.98946 26.5835 4.39367 27.7893 4.39367H85.4153C85.7366 4.39367 86.0385 4.51845 86.2662 4.74517L89.9172 8.37961C90.9782 9.43585 92.3888 10.0176 93.8894 10.0176H131.892C133.863 10.0176 135.466 11.6134 135.466 13.5747V69.9473Z" fill="#A66A21"/>
<path d="M78.2705 22.4956H64.3111C61.4917 22.4956 59.1966 24.7786 59.1966 27.587V74.6046C59.1966 75.8172 60.1852 76.8014 61.4034 76.8014H81.1764C82.3946 76.8014 83.3832 75.8172 83.3832 74.6046V27.587C83.385 24.7786 81.0917 22.4956 78.2705 22.4956ZM78.9714 72.4077H63.612V46.5729H78.9714V72.4077ZM78.9714 42.1793H63.612V27.587C63.612 27.2021 63.9262 26.8893 64.3129 26.8893H78.2723C78.6589 26.8893 78.9731 27.2021 78.9731 27.587V42.1793H78.9714ZM122.922 22.4956H95.9285C92.809 22.4956 90.2702 25.0228 90.2702 28.1283V40.942C90.2702 44.0475 92.809 46.5747 95.9285 46.5747H122.924C126.044 46.5747 128.582 44.0475 128.582 40.942V28.1283C128.58 25.0228 126.042 22.4956 122.922 22.4956ZM124.167 40.9402C124.167 41.6221 123.609 42.1793 122.922 42.1793H95.9285C95.2417 42.1793 94.6839 41.6239 94.6839 40.9402V28.1265C94.6839 27.4446 95.2417 26.8875 95.9285 26.8875H122.924C123.611 26.8875 124.169 27.4429 124.169 28.1265V40.9402H124.167Z" fill="#A66A21"/>
</g>
<defs>
<clipPath id="clip0_23_152">
<rect width="140" height="100" fill="white"/>
</clipPath>
</defs>
</svg>
