<svg width="108" height="100" viewBox="0 0 108 100" fill="none" xmlns="http://www.w3.org/2000/svg">
<g clip-path="url(#clip0_23_156)">
<path d="M107.273 20.3667C106.677 16.9985 105.391 13.7914 103.494 10.9488C101.598 8.10623 99.1339 5.69038 96.2579 3.85459C93.3818 2.0188 90.1569 0.803182 86.7878 0.284892C83.4187 -0.233399 79.9791 -0.043036 76.6872 0.843896C73.3953 1.73083 70.3231 3.29496 67.6656 5.43699C65.0081 7.57902 62.8234 10.2522 61.2501 13.2867C59.6768 16.3213 58.7493 19.651 58.5265 23.0645C58.3037 26.478 58.7905 29.9007 59.9559 33.1153L52.6065 46.7746L51.5178 48.6869L34.4147 79.8754C33.4952 81.4788 33.2179 83.3733 33.6391 85.1744C34.0604 86.9754 35.1486 88.5482 36.683 89.5735L37.2728 89.9377L34.324 92.1687L33.5074 92.7606C31.0576 94.5818 29.4245 95.6746 27.2469 95.3559C26.1724 95.1285 25.1809 94.609 24.3808 93.8542C23.5807 93.0994 23.0028 92.1383 22.7103 91.076C21.4276 86.6427 20.8759 82.0287 21.0771 77.4168V77.2346C21.1673 75.6393 20.8958 74.0441 20.2829 72.5693C19.6699 71.0945 18.7316 69.7785 17.5385 68.7204C16.1045 67.8245 14.4943 67.2508 12.8185 67.0386C11.1427 66.8264 9.44094 66.9808 7.83017 67.4911C6.71087 67.7317 5.57195 67.8688 4.42771 67.9008C4.42771 67.5821 3.74722 65.5332 8.23846 55.4709C8.38283 55.196 8.46957 54.8943 8.49335 54.5844C8.51713 54.2746 8.47745 53.9631 8.37674 53.6692C8.27603 53.3753 8.11644 53.1053 7.90779 52.8756C7.69913 52.646 7.44584 52.4617 7.16352 52.334C6.8812 52.2063 6.57582 52.1381 6.2662 52.1333C5.95658 52.1286 5.64928 52.1876 5.36322 52.3066C5.07716 52.4256 4.81841 52.6021 4.6029 52.8252C4.3874 53.0484 4.2197 53.3135 4.11014 53.6042C-0.108906 63.5754 -0.970863 68.1285 1.02525 70.6327C3.02136 73.1369 6.01552 72.4539 8.78286 71.9986C11.5502 71.5433 13.5917 71.179 14.8619 72.2262C15.9774 73.6439 16.5127 75.4348 16.359 77.2346V77.781C16.1589 82.8458 16.8029 87.9087 18.2644 92.7606C18.8284 94.6376 19.9127 96.3149 21.3907 97.5968C22.8687 98.8786 24.6795 99.7121 26.6118 100H27.9727C31.0302 99.7781 33.9235 98.5267 36.184 96.4486L36.9552 95.8567C38.4069 94.8095 39.7679 93.7168 41.1743 92.624C42.7378 93.6616 44.6373 94.0604 46.4842 93.7387C48.331 93.4171 49.9856 92.3994 51.1095 90.8939L73.3389 62.938L74.7906 61.1623L84.3175 49.1877C87.9979 49.0237 91.595 48.0349 94.845 46.2937C98.095 44.5525 100.915 42.1032 103.099 39.1254C104.991 36.4286 106.334 33.3831 107.051 30.1639C107.767 26.9448 107.842 23.6153 107.273 20.3667ZM47.5255 88.2986C47.1174 88.8533 46.5092 89.2257 45.831 89.3364C45.1528 89.447 44.4584 89.2869 43.8962 88.8905L39.3596 85.7489C38.7884 85.3591 38.3862 84.7659 38.2346 84.0895C38.083 83.4131 38.1932 82.7042 38.543 82.1064L54.6934 52.5114C56.7497 54.4553 58.9653 56.222 61.3168 57.793C63.6859 59.3528 66.1736 60.7229 68.7569 61.8908L47.5255 88.2986ZM71.5242 58.2028C68.7778 57.0677 66.1491 55.6647 63.6759 54.014C61.2088 52.3685 58.9137 50.4769 56.8256 48.3681L62.9047 37.4408C67.2537 42.6033 72.9595 46.4368 79.3726 48.5047L71.5242 58.2028ZM99.9234 35.8927C99.7733 36.1609 99.6067 36.4194 99.4244 36.6667C97.5766 39.1838 95.1735 41.2375 92.4032 42.6672C89.6328 44.0969 86.5704 44.8638 83.4555 44.9078C75.7444 43.2439 68.9504 38.7036 64.4471 32.2047C63.2336 29.1633 62.773 25.872 63.1049 22.6128C63.4367 19.3536 64.5511 16.2238 66.3525 13.4916C69.6881 19.6986 74.5634 24.9366 80.5067 28.6989C86.2513 32.7469 92.9388 35.2403 99.9234 35.9382V35.8927ZM102.056 31.3396C95.2041 31.1365 88.5756 28.8502 83.0472 24.7832C77.1705 21.2059 72.5183 15.9174 69.7096 9.62148C73.0405 6.63042 77.2663 4.83334 81.7244 4.51198C86.1824 4.19063 90.6207 5.36317 94.3434 7.84578C96.5845 9.38222 98.489 11.3622 99.94 13.6641C101.391 15.966 102.358 18.5413 102.782 21.2318C103.404 24.6383 103.154 28.1477 102.056 31.4307V31.3396Z" fill="#A66A21"/>
</g>
<defs>
<clipPath id="clip0_23_156">
<rect width="108" height="100" fill="white"/>
</clipPath>
</defs>
</svg>
