<svg width="230" height="33" viewBox="0 0 230 33" fill="none" xmlns="http://www.w3.org/2000/svg">
<g clip-path="url(#clip0_23_138)">
<path d="M0 13.0146C0.022255 9.29898 1.04598 6.42882 3.07118 4.40414C5.11863 2.3572 7.93388 1.33374 11.5169 1.33374H13.6868V4.27064H11.1163C8.64604 4.27064 6.74324 5.09386 5.40795 6.74031C4.0949 8.36451 3.41613 10.4559 3.37162 13.0146C3.41613 15.5733 4.0949 17.6758 5.40795 19.3223C6.74324 20.9465 8.64604 21.7586 11.1163 21.7586H13.6868V24.6955H11.5169C7.93388 24.6955 5.11863 23.6831 3.07118 21.6584C1.04598 19.6115 0.022255 16.7302 0 13.0146Z" fill="#222601"/>
<path d="M19.3748 10.7786C20.9327 9.15435 22.88 8.34226 25.2167 8.34226C26.3517 8.34226 27.4088 8.56475 28.3881 9.00973C29.3895 9.43247 30.2575 10.0221 30.9919 10.7786C31.7486 11.535 32.3383 12.425 32.7612 13.4485C33.184 14.4497 33.3954 15.5288 33.3954 16.6857C33.3954 17.8427 33.184 18.9329 32.7612 19.9564C32.3606 20.9576 31.7931 21.8364 31.0586 22.5929C30.3242 23.3494 29.4563 23.9501 28.4548 24.3951C27.4534 24.8178 26.374 25.0292 25.2167 25.0292C24.0372 25.0292 22.9467 24.8178 21.9453 24.3951C20.966 23.9501 20.1092 23.3494 19.3748 22.5929C18.6404 21.8364 18.0618 20.9576 17.6389 19.9564C17.2383 18.9329 17.0381 17.8427 17.0381 16.6857C17.0381 14.3273 17.817 12.3582 19.3748 10.7786ZM25.2167 11.1457C23.6589 11.1457 22.4015 11.6574 21.4445 12.6809C20.5098 13.7043 20.0425 15.0393 20.0425 16.6857C20.0425 18.3322 20.5098 19.6671 21.4445 20.6906C22.4015 21.7141 23.6589 22.2258 25.2167 22.2258C26.7968 22.2258 28.0542 21.7141 28.9889 20.6906C29.9236 19.6449 30.391 18.3099 30.391 16.6857C30.391 15.0615 29.9236 13.7377 28.9889 12.7142C28.0542 11.6685 26.7968 11.1457 25.2167 11.1457Z" fill="#222601"/>
<path d="M50.1894 24.6955H44.4142C41.9439 24.6955 40.1746 24.3284 39.1064 23.5941C38.1494 22.9489 37.5374 22.1813 37.2704 21.2913C37.0256 20.3791 36.9032 19.1888 36.9032 17.7203V8.676H39.8408V17.6869C39.8408 18.0874 39.8519 18.4323 39.8742 18.7215C39.8965 18.9885 39.9744 19.3445 40.1079 19.7895C40.2414 20.2122 40.4306 20.5682 40.6754 20.8575C40.9202 21.1245 41.2763 21.3692 41.7436 21.5917C42.211 21.7919 42.7785 21.8921 43.4461 21.8921H47.2517V8.676H50.1894V24.6955Z" fill="#222601"/>
<path d="M54.5437 8.676H60.3188C62.7891 8.676 64.5584 9.04311 65.6266 9.77733C66.5836 10.4226 67.1845 11.2013 67.4293 12.1135C67.6963 13.0035 67.8299 14.1827 67.8299 15.6511V24.6955H64.8922V15.6845C64.8922 15.284 64.8811 14.9503 64.8588 14.6833C64.8366 14.3941 64.7587 14.0381 64.6251 13.6153C64.4916 13.1703 64.3024 12.8144 64.0576 12.5474C63.8128 12.2581 63.4568 12.0134 62.9894 11.8131C62.5221 11.5906 61.9546 11.4794 61.2869 11.4794H57.4813V24.6955H54.5437V8.676Z" fill="#222601"/>
<path d="M70.1812 11.4794L76.1567 5.50547V8.676H80.6633V11.4794H76.1567V18.3544C76.1567 19.1331 76.2791 19.7784 76.5239 20.2901C76.7909 20.8018 77.1693 21.169 77.6589 21.3914C78.1485 21.5917 78.6047 21.7252 79.0276 21.7919C79.4727 21.8587 80.0179 21.8921 80.6633 21.8921V24.6955C78.104 24.6955 76.2123 24.206 74.9883 23.227C73.7643 22.248 73.1523 20.6238 73.1523 18.3544V11.4794H70.1812Z" fill="#222601"/>
<path d="M83.3464 24.6955V15.5844C83.3464 13.0257 83.8249 11.2569 84.7818 10.2779C85.2492 9.78846 85.8167 9.42135 86.4843 9.1766C87.152 8.93186 87.7306 8.78724 88.2202 8.74274C88.7321 8.69825 89.422 8.676 90.2899 8.676H93.2276V11.4794H89.689C89.2439 11.4794 88.899 11.4905 88.6542 11.5128C88.4094 11.535 88.1201 11.6129 87.7863 11.7464C87.4524 11.8799 87.1631 12.0913 86.9183 12.3805C86.4955 12.9145 86.2841 13.9824 86.2841 15.5844V24.6955H83.3464Z" fill="#222601"/>
<path d="M94.8868 8.676H97.8244V17.0528C97.8244 18.855 98.1026 20.1121 98.659 20.8241C99.2154 21.5361 100.239 21.8921 101.73 21.8921H105.235V8.676H108.173V23.8945C108.173 26.6756 107.439 28.7671 105.97 30.1688C104.523 31.5927 102.242 32.3047 99.1264 32.3047H96.7228V29.5013H98.8259C102.899 29.5013 105.035 27.8994 105.235 24.6955H102.431C99.5158 24.6955 97.524 24.1837 96.4558 23.1603C95.4098 22.1368 94.8868 20.0565 94.8868 16.9193V8.676Z" fill="#222601"/>
<path d="M123.076 24.6955H119.972V8.77612C119.972 6.48444 120.706 4.6155 122.175 3.1693C123.666 1.7231 125.502 1 127.683 1C130.087 1 131.889 1.61185 133.091 2.83556C134.315 4.03702 134.927 5.5166 134.927 7.27429C134.927 9.52147 133.881 11.1345 131.789 12.1135V12.247C134.66 13.0702 136.096 15.0615 136.096 18.2209C136.096 22.5373 133.547 24.6955 128.451 24.6955H124.278V21.7586H128.418C129.953 21.7586 131.077 21.4471 131.789 20.8241C132.501 20.2011 132.857 19.1999 132.857 17.8204C132.857 16.619 132.468 15.6956 131.689 15.0504C130.932 14.4052 129.898 14.0826 128.584 14.0826H125.28V11.3125H127.416C128.618 11.3125 129.642 10.9899 130.487 10.3447C131.355 9.67721 131.789 8.78724 131.789 7.67478C131.789 6.60681 131.455 5.71684 130.788 5.00487C130.142 4.29289 129.085 3.9369 127.616 3.9369C126.281 3.9369 125.191 4.35964 124.345 5.20511C123.499 6.02833 123.076 7.24092 123.076 8.84287V24.6955Z" fill="#222601"/>
<path d="M139.593 18.3544V1.33374H142.598V18.3544C142.598 19.1554 142.687 19.8118 142.865 20.3235C143.065 20.813 143.365 21.169 143.766 21.3914C144.166 21.5917 144.556 21.7252 144.934 21.7919C145.313 21.8587 145.813 21.8921 146.436 21.8921V24.6955C143.944 24.6955 142.175 24.2171 141.129 23.2604C140.105 22.3037 139.593 20.6683 139.593 18.3544Z" fill="#222601"/>
<path d="M152.93 24.6955H149.993V11.4794H147.255L148.591 8.676H152.93V24.6955ZM149.859 5.33861C149.57 4.96037 149.425 4.54876 149.425 4.10377C149.425 3.65879 149.57 3.2583 149.859 2.90231C150.149 2.52407 150.594 2.33496 151.195 2.33496C151.795 2.33496 152.24 2.52407 152.53 2.90231C152.819 3.2583 152.964 3.65879 152.964 4.10377C152.964 4.54876 152.819 4.96037 152.53 5.33861C152.24 5.69459 151.795 5.87259 151.195 5.87259C150.594 5.87259 150.149 5.69459 149.859 5.33861Z" fill="#222601"/>
<path d="M168.509 8.676V11.4794H162.6C161.955 11.4794 161.399 11.6018 160.931 11.8465C160.464 12.0913 160.23 12.4361 160.23 12.8811C160.23 13.1481 160.286 13.3928 160.397 13.6153C160.508 13.8156 160.631 13.9824 160.764 14.1159C160.92 14.2494 161.143 14.3941 161.432 14.5498C161.744 14.6833 161.977 14.7834 162.133 14.8502C162.311 14.8947 163.023 15.1172 164.269 15.5176C165.516 15.9181 166.439 16.2519 167.04 16.5189C167.641 16.7859 168.097 17.153 168.409 17.6202C168.743 18.0652 168.954 18.5102 169.043 18.9552C169.132 19.3779 169.177 19.8006 169.177 20.2234C169.177 23.2048 167.129 24.6955 163.034 24.6955H157.259V21.8921H163.034C165.126 21.8921 166.172 21.3358 166.172 20.2234C166.172 19.6894 165.861 19.2444 165.238 18.8884C164.637 18.5324 163.891 18.2321 163.001 17.9873C162.133 17.7426 161.254 17.4645 160.364 17.153C159.496 16.8192 158.75 16.2964 158.127 15.5844C157.526 14.8502 157.226 13.9491 157.226 12.8811C157.226 11.5239 157.749 10.4893 158.795 9.77733C159.841 9.04311 161.109 8.676 162.6 8.676H168.509Z" fill="#222601"/>
<path d="M183.635 8.676V11.4794H177.727C177.081 11.4794 176.525 11.6018 176.058 11.8465C175.59 12.0913 175.357 12.4361 175.357 12.8811C175.357 13.1481 175.412 13.3928 175.523 13.6153C175.635 13.8156 175.757 13.9824 175.891 14.1159C176.046 14.2494 176.269 14.3941 176.558 14.5498C176.87 14.6833 177.104 14.7834 177.259 14.8502C177.437 14.8947 178.15 15.1172 179.396 15.5176C180.642 15.9181 181.566 16.2519 182.167 16.5189C182.767 16.7859 183.224 17.153 183.535 17.6202C183.869 18.0652 184.081 18.5102 184.17 18.9552C184.259 19.3779 184.303 19.8006 184.303 20.2234C184.303 23.2048 182.256 24.6955 178.161 24.6955H172.386V21.8921H178.161C180.253 21.8921 181.299 21.3358 181.299 20.2234C181.299 19.6894 180.987 19.2444 180.364 18.8884C179.763 18.5324 179.017 18.2321 178.127 17.9873C177.259 17.7426 176.38 17.4645 175.49 17.153C174.622 16.8192 173.877 16.2964 173.253 15.5844C172.653 14.8502 172.352 13.9491 172.352 12.8811C172.352 11.5239 172.875 10.4893 173.921 9.77733C174.967 9.04311 176.236 8.676 177.727 8.676H183.635Z" fill="#222601"/>
<path d="M194.428 1.06028C193.606 4.6147 193.399 8.39202 193.823 12.0807C194.248 15.7694 195.293 19.2637 196.872 22.2755C198.45 25.2873 200.517 27.7302 202.902 29.4028C205.288 31.0755 207.922 31.9298 210.59 31.8954C213.257 31.861 215.88 30.9389 218.243 29.205C220.605 27.4712 222.64 24.9754 224.179 21.9234C225.717 18.8714 226.716 15.3507 227.093 11.6517C227.469 7.95267 227.212 4.18133 226.343 0.648723L224.062 1.74973C224.806 4.77574 225.026 8.00625 224.704 11.1748C224.381 14.3433 223.526 17.3591 222.208 19.9735C220.89 22.5878 219.147 24.7257 217.123 26.2109C215.099 27.6961 212.852 28.486 210.567 28.5154C208.283 28.5449 206.026 27.8131 203.983 26.3803C201.94 24.9476 200.169 22.855 198.817 20.2751C197.465 17.6952 196.57 14.702 196.206 11.5423C195.842 8.38259 196.019 5.14696 196.724 2.10227L194.428 1.06028Z" fill="#401E01"/>
<path d="M202.605 0C201.445 2.11556 200.721 4.65853 200.516 7.33855C200.312 10.0186 200.634 12.7276 201.446 15.1564C202.259 17.5851 203.529 19.6356 205.112 21.0738C206.695 22.512 208.527 23.2799 210.398 23.2898C212.269 23.2997 214.105 22.5512 215.695 21.1297C217.285 19.7083 218.566 17.6712 219.391 15.2511C220.216 12.8311 220.552 10.1255 220.361 7.44338C220.169 4.76126 219.458 2.21071 218.309 0.0829541L216.402 2.16477C217.273 3.7761 217.807 5.76895 217.952 7.80009C218.096 9.83122 217.842 11.8801 217.217 13.7128C216.592 15.5455 215.623 17.0882 214.418 18.1646C213.214 19.2411 211.824 19.8079 210.407 19.8004C208.99 19.7929 207.603 19.2114 206.404 18.1223C205.205 17.0332 204.243 15.4803 203.628 13.641C203.013 11.8018 202.769 9.75026 202.924 7.7207C203.079 5.69115 203.627 3.76538 204.506 2.16329L202.605 0Z" fill="#401E01"/>
<path d="M229.985 2.16477L216.402 2.16477L215.62 0.991153L214.837 0.0131387L229.993 0.0426268L229.985 2.16477Z" fill="#401E01"/>
<path d="M190.565 2.16477L204.506 2.16477L205.322 0.991153L206.13 0.0131389L190.565 0.0131375L190.565 2.16477Z" fill="#401E01"/>
<path d="M190.562 1.99895C190.562 1.23096 191.029 0.608372 191.605 0.608372C192.182 0.608372 192.649 1.23096 192.649 1.99895C192.649 2.76695 192.182 3.38953 191.605 3.38953C191.029 3.38953 190.562 2.76695 190.562 1.99895Z" fill="#401E01"/>
<path d="M228.435 1.87137C228.435 1.16918 228.785 0.59995 229.217 0.59995C229.65 0.59995 230 1.16918 230 1.87137C230 2.57355 229.65 3.14279 229.217 3.14279C228.785 3.14279 228.435 2.57355 228.435 1.87137Z" fill="#401E01"/>
<path d="M221.587 8.91306C221.587 8.31891 222.069 7.83725 222.663 7.83725C223.257 7.83725 223.739 8.31891 223.739 8.91306C223.739 9.50722 223.257 9.98888 222.663 9.98888C222.069 9.98888 221.587 9.50722 221.587 8.91306Z" fill="#401E01"/>
<path d="M197.13 8.91306C197.13 8.31891 197.612 7.83725 198.206 7.83725C198.801 7.83725 199.283 8.31891 199.283 8.91306C199.283 9.50722 198.801 9.98888 198.206 9.98888C197.612 9.98888 197.13 9.50722 197.13 8.91306Z" fill="#401E01"/>
<path d="M209.261 25.9305C209.261 25.3364 209.743 24.8547 210.337 24.8547C210.931 24.8547 211.413 25.3364 211.413 25.9305C211.413 26.5247 210.931 27.0063 210.337 27.0063C209.743 27.0063 209.261 26.5247 209.261 25.9305Z" fill="#401E01"/>
<path d="M200.065 19.4756C200.065 18.8815 200.547 18.3998 201.141 18.3998C201.736 18.3998 202.217 18.8815 202.217 19.4756C202.217 20.0698 201.736 20.5514 201.141 20.5514C200.547 20.5514 200.065 20.0698 200.065 19.4756Z" fill="#401E01"/>
<path d="M218.652 19.4756C218.652 18.8815 219.134 18.3998 219.728 18.3998C220.323 18.3998 220.804 18.8815 220.804 19.4756C220.804 20.0698 220.323 20.5514 219.728 20.5514C219.134 20.5514 218.652 20.0698 218.652 19.4756Z" fill="#401E01"/>
</g>
<defs>
<clipPath id="clip0_23_138">
<rect width="230" height="33" fill="white"/>
</clipPath>
</defs>
</svg>
